<svg id="Capa_1" enable-background="new 0 0 511.954 511.954" height="512" viewBox="0 0 511.954 511.954" width="512" xmlns="http://www.w3.org/2000/svg"><g><g><g><path d="m334.873 313.88-44.118 44.118-136.798-136.798 44.118-44.118-114.572-114.573-54.726 54.726c-38.37 38.37-38.37 100.801 0 139.171l226.771 226.772c19.186 19.185 44.386 28.777 69.586 28.777 25.201 0 50.401-9.593 69.586-28.777l54.725-54.725zm-251.37-208.944 72.146 72.146-22.905 22.905-72.146-72.147zm193.259 357.028-226.772-226.771c-23.031-23.031-26.176-58.532-9.434-84.968l321.174 321.174c-26.435 16.739-61.936 13.595-84.968-9.435zm107.353-10.606-72.146-72.147 22.905-22.905 72.146 72.146z"/></g></g><path d="m432.366 79.588c-51.322-51.323-119.559-79.588-192.14-79.588v30c133.289 0 241.729 108.439 241.729 241.729h30c-.001-72.581-28.265-140.819-79.589-192.141z"/><path d="m408.362 271.729h30c0-109.252-88.884-198.136-198.136-198.136v30c92.71 0 168.136 75.425 168.136 168.136z"/><path d="m332.445 271.729h30c0-67.392-54.827-122.219-122.219-122.219v30c50.849 0 92.219 41.369 92.219 92.219z"/></g></svg>